<?xml version="1.0" encoding="UTF-8"?>
<svg id="Layer_1" data-name="Layer 1" xmlns="http://www.w3.org/2000/svg" viewBox="0 0 500 500">
  <defs>
    <style>
      .cls-1, .cls-2 {
        fill: #ed1c24;
      }

      .cls-1, .cls-3 {
        stroke-width: 0px;
      }

      .cls-2 {
        stroke: #ed1c24;
        stroke-miterlimit: 10;
        stroke-width: 2px;
      }

      .cls-3 {
        fill: #3a3a3c;
      }
    </style>
  </defs>
  <g>
    <path class="cls-1" d="m438.89,63c.01-2.05.03-4.1.04-6.14,0-.27,0-.54,0-.87.25-.01.45-.03.66-.03,1.91,0,3.83-.02,5.74.01.44,0,.6-.15.71-.55.81-2.79,1.65-5.57,2.46-8.35.12-.43.35-.69.73-.9,1.83-1,3.65-2.02,5.46-3.05.24-.14.48-.35.62-.58,1.15-1.86,2.26-3.74,3.41-5.59.21-.34.15-.52-.09-.8-6.12-6.91-12.22-13.84-18.33-20.76-.5-.57-1-1.14-1.54-1.75.34-.5.67-.99,1.01-1.49.97-1.42,1.92-2.84,2.91-4.25.15-.22.41-.42.67-.5,4.51-1.42,9.04-2.83,13.56-4.23.24-.07.49-.12.74-.12,2.26,0,4.53,0,6.79-.01.34,0,.52.09.66.41,2.97,6.38,5.96,12.74,8.9,19.14.25.54.2,1.26.16,1.89-.05.78.17,1.36.74,1.92.79.78,1.49,1.65,2.25,2.46.26.27.33.5.18.88-.82,2.1-1.63,4.22-2.41,6.34-.14.39-.34.49-.73.48-1.05-.03-2.11-.03-3.16,0-.19,0-.47.19-.54.36-1.38,3.27-2.73,6.54-4.07,9.83-.09.21-.05.54.04.76.66,1.54,1.34,3.07,2.04,4.59.27.58.42,1.16.38,1.8-.04.66,0,1.32,0,2.06h8.78v7.07h-5.27v-1.79h3.48v-3.47h-35.13v3.51h26.39v1.74h-28.23Zm24.42-36.22c-.47.4-.9.76-1.33,1.12-.38-.43-.71-.8-1.08-1.21-.48.41-.93.79-1.39,1.19.19.21.36.35.48.53.57.89,1.36,1.26,2.41,1.08.19-.03.48,0,.6.11.91.87,1.79,1.78,2.66,2.65-.42.44-.8.84-1.28,1.35-.64-.71-1.25-1.38-1.87-2.07-1.07.91-2.05,1.76-3.06,2.62.46.65.88,1.27,1.33,1.85.24.31.26.53.04.87-1.06,1.7-2.09,3.43-3.13,5.15-.11.18-.2.35-.36.62.83,0,1.55.02,2.27,0,.42-.02.61.11.76.52.83,2.31,1.69,4.61,2.55,6.91.07.18.23.44.36.45.85.04,1.69.02,2.63.02-.46-1.04-.86-1.99-1.31-2.92-.19-.39-.17-.72,0-1.11,1.2-2.86,2.38-5.72,3.57-8.58.18-.44.36-.89.59-1.48-1.52.45-2-.75-2.81-1.43.42-.44.81-.84,1.22-1.26.16.15.32.27.44.42.36.49.83.61,1.42.59,1.35-.04,2.69-.02,4.04,0,.34,0,.52-.09.64-.42.53-1.45,1.08-2.88,1.64-4.32.11-.29.08-.49-.14-.72-.84-.9-1.67-1.81-2.47-2.74-.17-.2-.27-.51-.29-.77-.04-.54-.01-1.08-.01-1.63-.9-.06-1.68-.1-2.37.53-.49.46-1.11.79-1.69,1.19-.34-.49-.67-.95-1-1.44.55-.39,1.08-.72,1.56-1.11.84-.68,1.73-1.17,2.87-.99.02,0,.05-.05.09-.09-.03-.07-.08-.15-.1-.24-.31-1.14-1-1.52-2.21-1.45-1.03.05-1.83.27-2.61.98-1.51,1.38-3.1,2.67-4.69,4.02.35.42.67.8,1.04,1.24Zm-15.29-5.49c3.46,3.85,6.88,7.66,10.32,11.49.63-.54,1.2-1.03,1.81-1.55-1.07-1.18-2.11-2.34-3.18-3.51,2.1-1.78,4.14-3.52,6.22-5.28-.78-.92-1.53-1.81-2.29-2.71,1.64-1.44,3.22-2.83,4.81-4.21.16-.13.42-.2.63-.21.71-.03,1.43,0,2.25,0-.22-.49-.41-.88-.57-1.29-.13-.34-.32-.46-.69-.46-1.48.02-2.97,0-4.45.02-.3,0-.62.06-.91.16-1.13.4-2.26.82-3.42,1.25-.21-.58-.4-1.1-.6-1.65.98-.37,1.9-.71,2.85-1.06-.19-.69-.36-1.32-.54-2.01-3.64,1.33-7.23,2.65-10.88,3.99.3.35.54.63.78.9q.67.77,1.61.43c.31-.11.62-.23.93-.34,1.15-.42,2.3-.83,3.48-1.26.21.58.4,1.1.6,1.65-1.92.7-3.77,1.37-5.61,2.06-.25.09-.52.22-.68.42-.83,1.03-1.63,2.09-2.49,3.19Zm7.15,29.6c-.32-.9-.64-1.71-.91-2.54-.1-.31-.26-.42-.59-.42-1.01.02-2.03.03-3.04,0-.4-.01-.58.12-.69.51-.68,2.34-1.38,4.67-2.06,7.01-.04.14-.06.29-.1.47h10.31s.09-.08.14-.12c-1.46-.59-2.15-1.69-2.34-3.16.53-.19,1.03-.37,1.56-.56.09.23.18.41.22.59.15.67.55,1.12,1.12,1.48.72.46,1.38,1.02,2.11,1.48.29.18.67.31,1.01.32,1.52.03,3.04.01,4.57.01h.65c0-.89.03-1.69,0-2.48-.04-.82-.43-1.16-1.23-1.16-1.11,0-2.23-.03-3.34.01-.52.02-.78-.12-.96-.65-.79-2.26-1.63-4.5-2.47-6.75-.07-.18-.22-.48-.34-.48-.95-.03-1.97-.19-2.85.07-1.01.3-1.9,1-2.84,1.52.01.05.02.1.04.15.59,0,1.19-.02,1.78.01.18,0,.46.11.51.24.49,1.27.94,2.55,1.41,3.86-.56.2-1.06.38-1.65.6Zm10.17-42.68c-.49-1.06-.95-2.02-1.37-3-.15-.35-.35-.44-.71-.43-1.78.02-3.55,0-5.33.01-.21,0-.43.03-.63.09-4.3,1.33-8.59,2.67-12.88,4.01-.18.06-.39.14-.49.28-.99,1.42-1.96,2.86-2.95,4.3,1.2,1.34,2.38,2.65,3.59,3.99,1.1-1.41,2.13-2.78,3.21-4.12.25-.31.62-.59.99-.73,3.78-1.41,7.56-2.8,11.35-4.17.41-.15.87-.21,1.31-.22,1.26-.03,2.53-.01,3.9-.01Zm-.79,13.08c.88-.74,1.71-1.47,2.58-2.16.21-.16.51-.27.78-.28.75-.04,1.49-.01,2.33-.01-.23-.5-.43-.9-.58-1.31-.13-.34-.31-.48-.69-.46-.5.04-1.02.05-1.52,0-.59-.06-1.03.14-1.45.55-.84.8-1.73,1.54-2.61,2.32.41.48.78.9,1.18,1.36Zm-2.51-11.31c.15.6.27,1.1.42,1.6.03.09.18.22.28.22,1.39.01,2.78,0,4.26,0-.28-.6-.5-1.12-.75-1.61-.05-.11-.24-.2-.37-.2-1.24-.01-2.48,0-3.84,0Zm-16.27,8.83c.36.4.69.75,1.05,1.15.83-1.07,1.63-2.1,2.44-3.15-.36-.4-.69-.77-1.04-1.16-.84,1.08-1.63,2.1-2.45,3.16Z"/>
    <path class="cls-1" d="m468.88,63v-1.72h1.76v1.72h-1.76Z"/>
  </g>
  <path class="cls-3" d="m166.61,30.9c-.48-.24-1-.4-1.51-.59-1.82-.66-3.68-1.21-5.46-1.98-3.21-1.38-6.37-2.87-9.76-3.77-1.03-.27-2.1-.51-3.16-.57-1.62-.1-3.25-.07-4.87-.01-.91.03-1.84.12-2.71.37-2.69.77-5.37,1.55-7.75,3.12-.51.34-.84.16-1-.31-.07-.21,0-.45.18-.57,1.8-1.24,3.67-2.31,5.76-3.05,3.33-1.18,6.69-1.94,10.24-1.45,1.97.27,3.99.43,5.89.98,3.92,1.14,7.55,3.04,11.16,4.92,1.34.7,1.98.6,2.66-.66.22-.41.36-.85.53-1.31.07-.21,0-.44-.18-.57-.66-.48-1.24-.96-1.9-1.28-2.16-1.06-4.37-2.02-6.55-3.03-2.75-1.27-5.63-2.12-8.59-2.71-.95-.19-1.9-.43-2.86-.52-3.44-.34-6.82.26-10.04,1.34-3.81,1.27-7.21,3.37-10.16,6.13-.71.66-.82,1.37-.27,2.16.38.54.84,1.02,1.35,1.57.21.22.16.58-.09.74-1.03.66-2.06,1.33-3.15,2.03.29.24.43.44.62.5,1.58.56,2.9,1.58,4.3,2.46,1.73,1.08,3.48,2.14,5.28,3.09,1.31.69,2.71,1.21,4.12,1.81.18.08.3.26.3.46,0,.51,0,.99,0,1.48.02,1.46-.02,2.92.09,4.37.04.55.34,1.13.67,1.59,1.17,1.63,2.84,1.56,4.53,1.13,1.64-.41,2.51-1.82,2.14-3.44-.18-.78-.5-1.54-.75-2.3-.11-.32-.22-.65-.34-1.02-.12-.36.19-.71.56-.64.24.05.44.1.61.2,1.52.91,3,1.88,4.5,2.82,1.54.96,3.04,2,4.64,2.86,1.57.84,3.25,1.48,5.1,1.2,1.83-.28,3.65-.98,4.26-2.76.99-2.88.38-4.96-2.31-6.47-1.31-.73-3.05-.24-3.85,1.01-.53.83-.83,1.81-.11,2.64.25.29.62.48,1,.44.66-.07,1.05-.79,1.7-.85.85-.07.64,1.51.4,1.95-.33.61-1.05.79-1.7.78-.49-.01-.99-.15-1.47-.32-.41-.15-.81-.32-1.2-.53-2.5-1.35-4.74-2.97-6.99-5.16-.25-.24-.17-.67.16-.8,1.07-.45,2.02-.82,2.89-1.31,2.06-1.15,4.17-2.25,6.04-3.65,1.43-1.07,2.65-.83,4.03-.22.59.26,1.2.49,1.81.68.9.28,1.75-.15,2.09-1,.33-.82.06-1.48-.89-1.95Zm-21.85-3.7c1.23,0,2.22.75,2.22,1.68s-.99,1.68-2.22,1.68-2.22-.75-2.22-1.68.99-1.68,2.22-1.68Zm-1.37,18.62c.02.3-.24.56-.54.51-.73-.1-.99-.77-1.11-1.31-.36-1.57-.54-3.18-.74-4.78,0,0,0,0,0-.01-.07-.58.74-.78.94-.24.61,1.58,1.34,4.48,1.44,5.83Zm-3.56-10c-3.8-.63-7.58-2.21-9.04-3.56-.26-.24-.18-.68.15-.81,2.16-.87,4.31-1.74,6.47-2.59.91-.35,1.94.04,2.37.92,1.32,2.71,4.29,3.97,7.14,2.83.83-.33,1.52-1.12,2.16-1.81.4-.42.67-.97,1.08-1.67.12-.2.37-.29.59-.22,1.75.62,3.49,1.24,5.38,1.9.38.13.45.65.11.87-5.15,3.37-10.44,5.13-16.43,4.13Z"/>
  <path class="cls-3" d="m366.65,66.43h1.97c1.55,0,2.81-.86,2.81-1.93V15.5c0-3.86-9.98-9.07-9.98-9.07l-9.02,34.53c-.59,2.27.63,4.59,3.2,6.07l8.21,4.74v12.73c0,1.07,1.26,1.93,2.81,1.93Z"/>
  <g>
    <path class="cls-1" d="m22.29,34.63c-1.96-2.11-3.73-4.03-5.54-5.98-2.21,1.56-3.56,3.75-5.82,5.32-.32-2.1-.21-3.89-.1-5.66.03-.43.64-.83,1.01-1.22,1.43-1.47,2.86-2.93,4.3-4.39.1-.1.3-.12.54-.21,1.87,1.84,3.75,3.69,5.74,5.65,1.2-1.16,2.29-2.21,3.37-3.27.51-.5,1-1.01,1.5-1.51.81-.81,1.06-.81,1.85,0,1.34,1.36,2.67,2.72,4.02,4.07.15.15.34.25.63.47.68-.63,1.37-1.23,2.01-1.87.96-.96,1.88-1.96,2.83-2.93.77-.78,1.11-.76,1.9.05,1.33,1.36,2.66,2.73,4.01,4.08.7.7.9.69,1.59-.02,1.37-1.4,2.73-2.81,4.11-4.19.22-.22.54-.34.95-.59,1.1,1.38,2.19,2.72,3.26,4.08.57.72,1.01,1.56,1.66,2.2.65.64.88,1.35.88,2.2,0,1.41,0,2.81,0,4.14-.68.32-.9.06-1.21-.36-1.35-1.83-2.77-3.61-4.17-5.41-.13-.17-.23-.37-.46-.74-1.44,1.42-2.74,2.64-3.98,3.92-1.89,1.92-1.88,1.94-3.78.03-1.15-1.16-2.3-2.33-3.45-3.48-.07-.07-.19-.1-.47-.23-1,.96-2.05,1.96-3.09,2.97-.58.57-1.18,1.13-1.7,1.75-.56.66-1.11.63-1.68.1-.56-.52-1.08-1.08-1.62-1.62-1-1-2-2-3.15-3.15-1.94,1.9-3.82,3.75-5.95,5.83Z"/>
    <path class="cls-1" d="m10.75,49.09c0-1.86-.04-3.44.02-5.02.02-.45.23-.98.53-1.3,1.49-1.56,3.03-3.07,4.57-4.58.18-.18.47-.25.78-.4,1.89,1.84,3.76,3.67,5.73,5.59.83-.75,1.56-1.38,2.26-2.05.94-.91,1.85-1.86,2.77-2.79.74-.75.81-.75,1.55-.04,1.56,1.51,3.1,3.04,4.71,4.62.37-.23.73-.38.99-.63,1.36-1.34,2.69-2.7,4.03-4.06.76-.78.93-.8,1.7-.05,1.28,1.26,2.56,2.52,3.83,3.8,1.02,1.02,1.13,1.04,2.21-.05,1.27-1.27,2.52-2.57,3.8-3.84.26-.25.61-.41.96-.65,1.16,1.46,2.27,2.84,3.36,4.24.56.72,1.02,1.54,1.66,2.19.68.7.84,1.48.82,2.39-.03,1.25,0,2.5,0,3.72-.6.43-.88.2-1.23-.27-1.33-1.79-2.73-3.53-4.1-5.28-.16-.21-.36-.4-.65-.71-1.86,1.84-3.67,3.63-5.59,5.53-2.22-1.55-3.81-3.74-5.9-5.54-1.89,1.86-3.78,3.72-5.75,5.66-1.92-1.88-3.69-3.62-5.59-5.48-1.89,1.87-3.73,3.69-5.73,5.67-2.01-1.95-3.9-3.78-5.92-5.74-.51.45-1.09.91-1.61,1.44-1.01,1.05-1.97,2.15-2.99,3.18-.23.23-.66.26-1.21.46Z"/>
  </g>
  <g>
    <path class="cls-2" d="m259.95,52.03c-11.19,0-21.21-6.85-24.94-17.05-.1-.27-.06-.58.11-.82.17-.24.44-.38.73-.38h48.21c.29,0,.57.14.73.38.17.24.21.55.11.82-3.73,10.2-13.76,17.05-24.95,17.05Zm-22.79-16.47c3.8,8.83,12.8,14.68,22.79,14.68s18.99-5.85,22.79-14.68h-45.58Z"/>
    <g>
      <path class="cls-2" d="m278.48,29.39c-2.2,0-3.98-1.79-3.98-3.98s1.79-3.98,3.98-3.98,3.98,1.79,3.98,3.98-1.79,3.98-3.98,3.98Zm0-6.18c-1.21,0-2.19.98-2.19,2.19s.98,2.19,2.19,2.19,2.19-.98,2.19-2.19-.98-2.19-2.19-2.19Z"/>
      <path class="cls-2" d="m259.95,29.39c-2.2,0-3.98-1.79-3.98-3.98s1.79-3.98,3.98-3.98,3.98,1.79,3.98,3.98-1.79,3.98-3.98,3.98Zm0-6.18c-1.21,0-2.19.98-2.19,2.19s.98,2.19,2.19,2.19,2.19-.98,2.19-2.19-.98-2.19-2.19-2.19Z"/>
      <path class="cls-2" d="m241.43,29.39c-2.2,0-3.98-1.79-3.98-3.98s1.79-3.98,3.98-3.98,3.98,1.79,3.98,3.98-1.79,3.98-3.98,3.98Zm0-6.18c-1.21,0-2.19.98-2.19,2.19s.98,2.19,2.19,2.19,2.19-.98,2.19-2.19-.98-2.19-2.19-2.19Z"/>
    </g>
  </g>
  <path class="cls-3" d="m20.75,112.64l-.31-.07c-.56-.13-1.16-.11-1.74.09-1.7.57-2.62,2.41-2.06,4.11.57,1.7,2.41,2.62,4.11,2.06,2.29-.76,4.58-1.15,6.88-1.45,1.21-.14,2.42-.24,3.63-.32l-1.5,21.94c0,.16-.01.34,0,.5.14,2,1.87,3.51,3.87,3.38s3.51-1.87,3.38-3.87l-1.51-22.05c.82,0,1.63,0,2.45.03l1.72.05,1.72.12c2.29.18,4.58.43,6.88.96.4.09.84.1,1.26.01,1.59-.33,2.6-1.89,2.27-3.48-.34-1.59-1.89-2.6-3.48-2.27h-.05c-2.29.49-4.58.83-6.88,1.03-1.03.1-2.05.17-3.08.23,2.83-3.29,4.46-9.07,4.46-13.64,0-7.43-4.12-13.25-9.38-13.25s-9.38,5.82-9.38,13.25c0,4.6,1.64,10.41,4.5,13.69-.29-.02-.58-.02-.88-.04-2.29-.15-4.58-.48-6.88-1.01Zm12.62-21.9c2.91,0,5.38,4.24,5.38,9.25,0,5.91-3.15,12.25-5.38,12.25s-5.38-6.34-5.38-12.25c0-5.01,2.46-9.25,5.38-9.25Z"/>
  <g>
    <path class="cls-1" d="m168.56,102.23c0-6.28-11.57-9.57-23-9.57s-23,3.29-23,9.57,10.96,11.49,23,11.49,23-5.48,23-11.49Zm-23,7.26c-11.29,0-18.77-5.17-18.77-7.26,0-1.88,7.13-5.34,18.77-5.34s18.77,3.46,18.77,5.34c0,2.09-7.48,7.26-18.77,7.26Z"/>
    <path class="cls-1" d="m129.38,132.26l1.13-14.05c.01-.18.01-.37,0-.56-.15-1.9-1.82-3.32-3.72-3.17-1.9.15-3.32,1.82-3.17,3.72l1.13,14.05"/>
    <path class="cls-1" d="m146.91,132.26l1.13-14.05c.01-.18.01-.37,0-.56-.15-1.9-1.82-3.32-3.72-3.17-1.9.15-3.32,1.82-3.17,3.72l1.13,14.05"/>
    <path class="cls-1" d="m164.44,132.26l1.13-14.05c.01-.18.01-.37,0-.56-.15-1.9-1.82-3.32-3.72-3.17-1.9.15-3.32,1.82-3.17,3.72l1.13,14.05"/>
  </g>
  <path class="cls-1" d="m343.11,105.07c-.53,1.41-.54,3.45.89,3.95,1.48-3.55,4.66-6.35,8.37-7.36.91,1.71,3.42,3.18,3.55,5.13.12,1.72-1.97,4.22-2.2,6.13-.3,2.51.38,5.21,2.19,6.97,1.59,1.54,3.82,2.19,5.98,2.61.66.13,1.32.24,1.99.33l-1.67,9.87c-2.17-.51-5.75-.98-7.77.74-.62.53-.7,1.46-.17,2.09.29.35.71.52,1.13.52.34,0,.68-.11.95-.35.66-.56,2.18-.58,3.72-.37-.07.41.03.85.32,1.19.29.35.71.52,1.13.52.34,0,.68-.11.96-.35,1.2-1.02,5.31-1,7.85-.66.39.05.8-.06,1.11-.31.31-.25.52-.61.56-1.01l1.18-11.62c5.11-.43,10.15-1.8,14.75-4.07-5.43-5.96-14.02-7.5-21.53-10.41-1.83-.71-3.77-1.65-4.59-3.44-1.18-2.56.48-5.62-.19-8.36-.54-2.19-2.71-3.85-4.96-3.81-2.25.04-4.36,1.78-4.82,3.99-3.96,1.13-7.31,4.22-8.75,8.08Zm22.08,27.87l1.65-9.79c1.12.08,2.24.11,3.36.1l-.99,9.69c-1.09-.08-2.56-.13-4.03,0Z"/>
  <path class="cls-3" d="m268.78,105.52l1.19-7.73c0-1.54-1.25-2.79-2.79-2.79h-10.22c-1.54,0-2.79,1.25-2.79,2.79l1.15,7.5c-7.02,2.16-12.03,7.77-12.03,14.37,0,8.47,8.23,15.33,18.39,15.33s18.39-6.86,18.39-15.33c0-6.37-4.66-11.83-11.28-14.14Z"/>
  <path class="cls-3" d="m125.68,220c.52.03,1-.24,1.41-.58,1.93-1.63,3.2-4.23,4.66-6.29,1.76-2.49,3.52-4.99,5.28-7.48,1.81.63,3.75.77,5.65.53v10.44c0,.82.66,1.48,1.48,1.48h9.51c.82,0,1.48-.66,1.48-1.48s-.66-1.48-1.48-1.48h7.4c.82,0,1.48-.66,1.48-1.48s-.66-1.48-1.48-1.48h-8.03v-11.48c.39-.38.77-.78,1.14-1.18,1.96-2.17,3.63-4.65,4.55-7.43.95-2.88.78-5.77.05-8.68,2.03-1.37,3.54-3.5,4.14-5.87.05-.21.1-.43.24-.59.15-.18.37-.26.59-.33,1.31-.39,2.72-.24,4.09-.21.32,0,.69-.01.9-.26.73-.87-.89-2-1.45-2.32-1.26-.73-2.65-1.24-4.11-1.37-.42-3.09-4-5.12-7.03-4.42-3.04.7-5.25,3.58-5.79,6.65-.25,1.4-.21,2.89-.86,4.15-.91,1.77-2.9,2.65-4.7,3.51-5.46,2.61-10.72,6.72-12.34,12.55-2.08,7.5-8.45,12.68-12.52,19.31-.37.6-.75,1.34-.46,1.99.18.4.57.64.95.87,1.36.82,2.72,1.64,4.08,2.47.37.22.75.45,1.18.48Zm24.4-16.82v10.48c0,.82.66,1.48,1.48,1.48h-5.92v-9.65c.28-.1.56-.19.83-.3,1.28-.52,2.48-1.21,3.61-2.01Z"/>
  <g>
    <path class="cls-3" d="m452.42,99.53c.14-.34.29-.53.38-.62.09-.09.15-.16.42-.19.27-.06.43-.01.54,0,.17-.01.72.58.99,1.58.15.48.25,1.02.32,1.57l.05.41.03.43.06,1.02c.16,2.71.36,5.42.67,8.12.08.68.62,1.25,1.33,1.33.83.09,1.58-.5,1.67-1.33.31-2.69.51-5.37.67-8.05l.06-1,.03-.58c0-.2,0-.4,0-.6-.01-.8-.09-1.59-.26-2.42-.16-.82-.42-1.69-.92-2.58-.48-.87-1.25-1.81-2.37-2.39-1.09-.58-2.32-.78-3.38-.67-.53,0-1.12.18-1.69.35-.56.24-1.12.52-1.58.92-.94.77-1.55,1.73-1.94,2.63-.39.91-.59,1.78-.72,2.63-.06.43-.1.85-.12,1.29-.02.5,0,.8,0,1.14v2.02s0,4.03,0,4.03c.02,5.38.1,10.76.24,16.14.16,5.38.35,10.76.71,16.14.06.86.75,1.57,1.63,1.63.97.07,1.8-.66,1.87-1.63.37-5.39.55-10.79.71-16.19.13-5.4.22-10.79.24-16.19v-4.05s0-2.02,0-2.02v-.88c0-.23.02-.49.04-.73.06-.48.16-.94.3-1.27Z"/>
    <path class="cls-3" d="m472.42,99.53c.14-.34.29-.53.38-.62.09-.09.15-.16.42-.19.27-.06.43-.01.54,0,.17-.01.72.58.99,1.58.15.48.25,1.02.32,1.57l.05.41.03.43.06,1.02c.16,2.71.36,5.42.67,8.12.08.68.62,1.25,1.33,1.33.83.09,1.58-.5,1.67-1.33.31-2.69.51-5.37.67-8.05l.06-1,.03-.58c0-.2,0-.4,0-.6-.01-.8-.09-1.59-.26-2.42-.16-.82-.42-1.69-.92-2.58-.48-.87-1.25-1.81-2.37-2.39-1.09-.58-2.32-.78-3.38-.67-.53,0-1.12.18-1.69.35-.56.24-1.12.52-1.58.92-.94.77-1.55,1.73-1.94,2.63-.39.91-.59,1.78-.72,2.63-.06.43-.1.85-.12,1.29-.02.5,0,.8,0,1.14v2.02s0,4.03,0,4.03c.02,5.38.1,10.76.24,16.14.16,5.38.35,10.76.71,16.14.06.86.75,1.57,1.63,1.63.97.07,1.8-.66,1.87-1.63.37-5.39.55-10.79.71-16.19.13-5.4.22-10.79.24-16.19v-4.05s0-2.02,0-2.02v-.88c0-.23.02-.49.04-.73.06-.48.16-.94.3-1.27Z"/>
  </g>
  <path class="cls-1" d="m47.57,197.57c-4.3-1.65-8.88-2.34-13.37-2.36-4.49-.02-9.07.66-13.39,2.31-2.15.84-4.22,1.92-6.1,3.31-.93.71-1.82,1.46-2.64,2.32-.42.41-.8.87-1.18,1.33-.38.49-.69.92-1.07,1.58-.38.65-.25,1.5.35,2.01.67.57,1.68.5,2.25-.17l.15-.18c.05-.05.1-.12.16-.18,2.65,2.23,9.29,6.47,21.47,6.47s18.2-4.72,20.73-7.21c.34.31.71.7.92.94l.15.17c.5.57,1.35.71,2.02.31.76-.45,1-1.43.55-2.19-.39-.64-.7-1.07-1.09-1.55-.38-.46-.77-.9-1.19-1.31-.82-.84-1.71-1.59-2.65-2.29-1.88-1.37-3.94-2.46-6.09-3.3Zm-32.58,7.9c.62-.48,1.28-.93,1.96-1.34,1.67-1.02,3.49-1.79,5.36-2.42,2.11-.66,4.31-1.12,6.54-1.39-.18.61-.28,1.25-.28,1.93,0,3.44,2.52,6.23,5.64,6.23s5.64-2.79,5.64-6.23c0-.66-.09-1.3-.27-1.89,2.21.28,4.38.74,6.47,1.4,1.87.64,3.7,1.41,5.38,2.43.39.23.77.47,1.14.72-2.28,2.13-7.92,6.1-18.36,6.1s-16.78-3.61-19.22-5.53Z"/>
  <g>
    <path class="cls-1" d="m448.29,194.17c-1.96-2.11-3.73-4.03-5.54-5.98-2.21,1.56-3.56,3.75-5.82,5.32-.32-2.1-.21-3.89-.1-5.66.03-.43.64-.83,1.01-1.22,1.43-1.47,2.86-2.93,4.3-4.39.1-.1.3-.12.54-.21,1.87,1.84,3.75,3.69,5.74,5.65,1.2-1.16,2.29-2.21,3.37-3.27.51-.5,1-1.01,1.5-1.51.81-.81,1.06-.81,1.85,0,1.34,1.36,2.67,2.72,4.02,4.07.15.15.34.25.63.47.68-.63,1.37-1.23,2.01-1.87.96-.96,1.88-1.96,2.83-2.93.77-.78,1.11-.76,1.9.05,1.33,1.36,2.66,2.73,4.01,4.08.7.7.9.69,1.59-.02,1.37-1.4,2.73-2.81,4.11-4.19.22-.22.54-.34.95-.59,1.1,1.38,2.19,2.72,3.26,4.08.57.72,1.01,1.56,1.66,2.2.65.64.88,1.35.88,2.2,0,1.41,0,2.81,0,4.14-.68.32-.9.06-1.21-.36-1.35-1.83-2.77-3.61-4.17-5.41-.13-.17-.23-.37-.46-.74-1.44,1.42-2.74,2.64-3.98,3.92-1.89,1.92-1.88,1.94-3.78.03-1.15-1.16-2.3-2.33-3.45-3.48-.07-.07-.19-.1-.47-.23-1,.96-2.05,1.96-3.09,2.97-.58.57-1.18,1.13-1.7,1.75-.56.66-1.11.63-1.68.1-.56-.52-1.08-1.08-1.62-1.62-1-1-2-2-3.15-3.15-1.94,1.9-3.82,3.75-5.95,5.83Z"/>
    <path class="cls-1" d="m436.75,208.63c0-1.86-.04-3.44.02-5.02.02-.45.23-.98.53-1.3,1.49-1.56,3.03-3.07,4.57-4.58.18-.18.47-.25.78-.4,1.89,1.84,3.76,3.67,5.73,5.59.83-.75,1.56-1.38,2.26-2.05.94-.91,1.85-1.86,2.77-2.79.74-.75.81-.75,1.55-.04,1.56,1.51,3.1,3.04,4.71,4.62.37-.23.73-.38.99-.63,1.36-1.34,2.69-2.7,4.03-4.06.76-.78.93-.8,1.7-.05,1.28,1.26,2.56,2.52,3.83,3.8,1.02,1.02,1.13,1.04,2.21-.05,1.27-1.27,2.52-2.57,3.8-3.84.26-.25.61-.41.96-.65,1.16,1.46,2.27,2.84,3.36,4.24.56.72,1.02,1.54,1.66,2.19.68.7.84,1.48.82,2.39-.03,1.25,0,2.5,0,3.72-.6.43-.88.2-1.23-.27-1.33-1.79-2.73-3.53-4.1-5.28-.16-.21-.36-.4-.65-.71-1.86,1.84-3.67,3.63-5.59,5.53-2.22-1.55-3.81-3.74-5.9-5.54-1.89,1.86-3.78,3.72-5.75,5.66-1.92-1.88-3.69-3.62-5.59-5.48-1.89,1.87-3.73,3.69-5.73,5.67-2.01-1.95-3.9-3.78-5.92-5.74-.51.45-1.09.91-1.61,1.44-1.01,1.05-1.97,2.15-2.99,3.18-.23.23-.66.26-1.21.46Z"/>
  </g>
  <path class="cls-3" d="m357.65,189.77l-.31-.07c-.56-.13-1.16-.11-1.74.09-1.7.57-2.62,2.41-2.06,4.11.57,1.7,2.41,2.62,4.11,2.06,2.29-.76,4.58-1.15,6.88-1.45,1.21-.14,2.42-.24,3.63-.32l-1.5,21.94c0,.16-.01.34,0,.5.14,2,1.87,3.51,3.87,3.38s3.51-1.87,3.38-3.87l-1.51-22.05c.82,0,1.63,0,2.45.03l1.72.05,1.72.12c2.29.18,4.58.43,6.88.96.4.09.84.1,1.26.01,1.59-.33,2.6-1.89,2.27-3.48-.33-1.59-1.89-2.6-3.48-2.27h-.05c-2.29.49-4.58.83-6.88,1.03-1.03.1-2.05.17-3.08.23,2.83-3.29,4.46-9.07,4.46-13.64,0-7.43-4.12-13.25-9.38-13.25s-9.38,5.82-9.38,13.25c0,4.6,1.64,10.41,4.5,13.69-.29-.02-.58-.02-.88-.04-2.29-.15-4.58-.48-6.88-1.01Zm12.62-21.9c2.91,0,5.38,4.24,5.38,9.25,0,5.91-3.15,12.25-5.38,12.25s-5.38-6.34-5.38-12.25c0-5.01,2.46-9.25,5.38-9.25Z"/>
  <g>
    <path class="cls-1" d="m128.64,467.52c.01-2.05.03-4.1.04-6.14,0-.27,0-.54,0-.87.25-.01.45-.03.66-.03,1.91,0,3.83-.02,5.74.01.44,0,.6-.15.71-.55.81-2.79,1.65-5.57,2.46-8.35.12-.43.35-.69.73-.9,1.83-1,3.65-2.02,5.46-3.05.24-.14.48-.35.62-.58,1.15-1.86,2.26-3.74,3.41-5.59.21-.34.15-.52-.09-.8-6.12-6.91-12.22-13.84-18.33-20.76-.5-.57-1-1.14-1.54-1.75.34-.5.67-.99,1.01-1.49.97-1.42,1.92-2.84,2.91-4.25.15-.22.41-.42.67-.5,4.51-1.42,9.04-2.83,13.56-4.23.24-.07.49-.12.74-.12,2.26,0,4.53,0,6.79-.01.34,0,.52.09.66.41,2.97,6.38,5.96,12.74,8.9,19.14.25.54.2,1.26.16,1.89-.05.78.17,1.36.74,1.92.79.78,1.49,1.65,2.25,2.46.26.27.33.5.18.88-.82,2.1-1.63,4.22-2.41,6.34-.14.39-.34.49-.73.48-1.05-.03-2.11-.03-3.16,0-.19,0-.47.19-.54.36-1.38,3.27-2.73,6.54-4.07,9.83-.09.21-.05.54.04.76.66,1.54,1.34,3.07,2.04,4.59.27.58.42,1.16.38,1.8-.04.66,0,1.32,0,2.06h8.78v7.07h-5.27v-1.79h3.48v-3.47h-35.13v3.51h26.39v1.74h-28.23Zm24.42-36.22c-.47.4-.9.76-1.33,1.12-.38-.43-.71-.8-1.08-1.21-.48.41-.93.79-1.39,1.19.19.21.36.35.48.53.57.89,1.36,1.26,2.41,1.08.19-.03.48,0,.6.11.91.87,1.79,1.78,2.66,2.65-.42.44-.8.84-1.28,1.35-.64-.71-1.25-1.38-1.87-2.07-1.07.91-2.05,1.76-3.06,2.62.46.65.88,1.27,1.33,1.85.24.31.26.53.04.87-1.06,1.7-2.09,3.43-3.13,5.15-.11.18-.2.35-.36.62.83,0,1.55.02,2.27,0,.42-.02.61.11.76.52.83,2.31,1.69,4.61,2.55,6.91.07.18.23.44.36.45.85.04,1.69.02,2.63.02-.46-1.04-.86-1.99-1.31-2.92-.19-.39-.17-.72,0-1.11,1.2-2.86,2.38-5.72,3.57-8.58.18-.44.36-.89.59-1.48-1.52.45-2-.75-2.81-1.43.42-.44.81-.84,1.22-1.26.16.15.32.27.44.42.36.49.83.61,1.42.59,1.35-.04,2.69-.02,4.04,0,.34,0,.52-.09.64-.42.53-1.45,1.08-2.88,1.64-4.32.11-.29.08-.49-.14-.72-.84-.9-1.67-1.81-2.47-2.74-.17-.2-.27-.51-.29-.77-.04-.54-.01-1.08-.01-1.63-.9-.06-1.68-.1-2.37.53-.49.46-1.11.79-1.69,1.19-.34-.49-.67-.95-1-1.44.55-.39,1.08-.72,1.56-1.11.84-.68,1.73-1.17,2.87-.99.02,0,.05-.05.09-.09-.03-.07-.08-.15-.1-.24-.31-1.14-1-1.52-2.21-1.45-1.03.05-1.83.27-2.61.98-1.51,1.38-3.1,2.67-4.69,4.02.35.42.67.8,1.04,1.24Zm-15.29-5.49c3.46,3.85,6.88,7.66,10.32,11.49.63-.54,1.2-1.03,1.81-1.55-1.07-1.18-2.11-2.34-3.18-3.51,2.1-1.78,4.14-3.52,6.22-5.28-.78-.92-1.53-1.81-2.29-2.71,1.64-1.44,3.22-2.83,4.81-4.21.16-.13.42-.2.63-.21.71-.03,1.43,0,2.25,0-.22-.49-.41-.88-.57-1.29-.13-.34-.32-.46-.69-.46-1.48.02-2.97,0-4.45.02-.3,0-.62.06-.91.16-1.13.4-2.26.82-3.42,1.25-.21-.58-.4-1.1-.6-1.65.98-.37,1.9-.71,2.85-1.06-.19-.69-.36-1.32-.54-2.01-3.64,1.33-7.23,2.65-10.88,3.99.3.35.54.63.78.9q.67.77,1.61.43c.31-.11.62-.23.93-.34,1.15-.42,2.3-.83,3.48-1.26.21.58.4,1.1.6,1.65-1.92.7-3.77,1.37-5.61,2.06-.25.09-.52.22-.68.42-.83,1.03-1.63,2.09-2.49,3.19Zm7.15,29.6c-.32-.9-.64-1.71-.91-2.54-.1-.31-.26-.42-.59-.42-1.01.02-2.03.03-3.04,0-.4-.01-.58.12-.69.51-.68,2.34-1.38,4.67-2.06,7.01-.04.14-.06.29-.1.47h10.31s.09-.08.14-.12c-1.46-.59-2.15-1.69-2.34-3.16.53-.19,1.03-.37,1.56-.56.09.23.18.41.22.59.15.67.55,1.12,1.12,1.48.72.46,1.38,1.02,2.11,1.48.29.18.67.31,1.01.32,1.52.03,3.04.01,4.57.01h.65c0-.89.03-1.69,0-2.48-.04-.82-.43-1.16-1.23-1.16-1.11,0-2.23-.03-3.34.01-.52.02-.78-.12-.96-.65-.79-2.26-1.63-4.5-2.47-6.75-.07-.18-.22-.48-.34-.48-.95-.03-1.97-.19-2.85.07-1.01.3-1.9,1-2.84,1.52.01.05.02.1.04.15.59,0,1.19-.02,1.78.01.18,0,.46.11.51.24.49,1.27.94,2.55,1.41,3.86-.56.2-1.06.38-1.65.6Zm10.17-42.68c-.49-1.06-.95-2.02-1.37-3-.15-.35-.35-.44-.71-.43-1.78.02-3.55,0-5.33.01-.21,0-.43.03-.63.09-4.3,1.33-8.59,2.67-12.88,4.01-.18.06-.39.14-.49.28-.99,1.42-1.96,2.86-2.95,4.3,1.2,1.34,2.38,2.65,3.59,3.99,1.1-1.41,2.13-2.78,3.21-4.12.25-.31.62-.59.99-.73,3.78-1.41,7.56-2.8,11.35-4.17.41-.15.87-.21,1.31-.22,1.26-.03,2.53-.01,3.9-.01Zm-.79,13.08c.88-.74,1.71-1.47,2.58-2.16.21-.16.51-.27.78-.28.75-.04,1.49-.01,2.33-.01-.23-.5-.43-.9-.58-1.31-.13-.34-.31-.48-.69-.46-.5.04-1.02.05-1.52,0-.59-.06-1.03.14-1.45.55-.84.8-1.73,1.54-2.61,2.32.41.48.78.9,1.18,1.36Zm-2.51-11.31c.15.6.27,1.1.42,1.6.03.09.18.22.28.22,1.39.01,2.78,0,4.26,0-.28-.6-.5-1.12-.75-1.61-.05-.11-.24-.2-.37-.2-1.24-.01-2.48,0-3.84,0Zm-16.27,8.83c.36.4.69.75,1.05,1.15.83-1.07,1.63-2.1,2.44-3.15-.36-.4-.69-.77-1.04-1.16-.84,1.08-1.63,2.1-2.45,3.16Z"/>
    <path class="cls-1" d="m158.63,467.52v-1.72h1.76v1.72h-1.76Z"/>
  </g>
  <path class="cls-3" d="m282.1,270.73c-.48-.24-1-.4-1.51-.59-1.82-.66-3.68-1.21-5.46-1.98-3.21-1.38-6.37-2.87-9.76-3.77-1.03-.27-2.1-.51-3.16-.57-1.62-.1-3.25-.07-4.87-.01-.91.03-1.84.12-2.71.37-2.69.77-5.37,1.55-7.75,3.12-.51.34-.84.16-1-.31-.07-.21,0-.45.18-.57,1.8-1.24,3.67-2.31,5.76-3.05,3.33-1.18,6.69-1.94,10.24-1.45,1.97.27,3.99.43,5.89.98,3.92,1.14,7.55,3.04,11.16,4.92,1.34.7,1.98.6,2.66-.66.22-.41.36-.85.53-1.31.07-.21,0-.44-.18-.57-.66-.48-1.24-.96-1.9-1.28-2.16-1.06-4.37-2.02-6.55-3.03-2.75-1.27-5.63-2.12-8.59-2.71-.95-.19-1.9-.43-2.86-.52-3.44-.34-6.82.26-10.04,1.34-3.81,1.27-7.21,3.37-10.16,6.13-.71.66-.82,1.37-.27,2.16.38.54.84,1.02,1.35,1.57.21.22.16.58-.09.74-1.03.66-2.06,1.33-3.15,2.03.29.24.43.44.62.5,1.58.56,2.9,1.58,4.3,2.46,1.73,1.08,3.48,2.14,5.28,3.09,1.31.69,2.71,1.21,4.12,1.81.18.08.3.26.3.46,0,.51,0,.99,0,1.48.02,1.46-.02,2.92.09,4.37.04.55.34,1.13.67,1.59,1.17,1.63,2.84,1.56,4.53,1.13,1.64-.41,2.51-1.82,2.14-3.44-.18-.78-.5-1.54-.75-2.3-.11-.32-.22-.65-.34-1.02-.12-.36.19-.71.56-.64.24.05.44.1.61.2,1.52.91,3,1.88,4.5,2.82,1.54.96,3.04,2,4.64,2.86,1.57.84,3.25,1.48,5.1,1.2,1.83-.28,3.65-.98,4.26-2.76.99-2.88.38-4.96-2.31-6.47-1.31-.73-3.05-.24-3.85,1.01-.53.83-.83,1.81-.11,2.64.25.29.62.48,1,.44.66-.07,1.05-.79,1.7-.85.85-.07.64,1.51.4,1.95-.33.61-1.05.79-1.7.78-.49-.01-.99-.15-1.47-.32-.41-.15-.81-.32-1.2-.53-2.5-1.35-4.74-2.97-6.99-5.16-.25-.24-.17-.67.16-.8,1.07-.45,2.02-.82,2.89-1.31,2.06-1.15,4.17-2.25,6.04-3.65,1.43-1.07,2.65-.83,4.03-.22.59.26,1.2.49,1.81.68.9.28,1.75-.15,2.09-1,.33-.82.06-1.48-.89-1.95Zm-21.85-3.7c1.23,0,2.22.75,2.22,1.68s-.99,1.68-2.22,1.68-2.22-.75-2.22-1.68.99-1.68,2.22-1.68Zm-1.37,18.62c.02.3-.24.56-.54.51-.73-.1-.99-.77-1.11-1.31-.36-1.57-.54-3.18-.74-4.78,0,0,0,0,0-.01-.07-.58.74-.78.94-.24.61,1.58,1.34,4.48,1.44,5.83Zm-3.56-10c-3.8-.63-7.58-2.21-9.04-3.56-.26-.24-.18-.68.15-.81,2.16-.87,4.31-1.74,6.47-2.59.91-.35,1.94.04,2.37.92,1.32,2.71,4.29,3.97,7.14,2.83.83-.33,1.52-1.12,2.16-1.81.4-.42.67-.97,1.08-1.67.12-.2.37-.29.59-.22,1.75.62,3.49,1.24,5.38,1.9.38.13.45.65.11.87-5.15,3.37-10.44,5.13-16.43,4.13Z"/>
  <path class="cls-3" d="m33.98,311.96h1.97c1.55,0,2.81-.86,2.81-1.93v-49c0-3.86-9.98-9.07-9.98-9.07l-9.02,34.53c-.59,2.27.63,4.59,3.2,6.07l8.21,4.74v12.73c0,1.07,1.26,1.93,2.81,1.93Z"/>
  <g>
    <path class="cls-1" d="m358.29,275.56c-1.96-2.11-3.73-4.03-5.54-5.98-2.21,1.56-3.56,3.75-5.82,5.32-.32-2.1-.21-3.89-.1-5.66.03-.43.64-.83,1.01-1.22,1.43-1.47,2.86-2.93,4.3-4.39.1-.1.3-.12.54-.21,1.87,1.84,3.75,3.69,5.74,5.65,1.2-1.16,2.29-2.21,3.37-3.27.51-.5,1-1.01,1.5-1.51.81-.81,1.06-.81,1.85,0,1.34,1.36,2.67,2.72,4.02,4.07.15.15.34.25.63.47.68-.63,1.37-1.23,2.01-1.87.96-.96,1.88-1.96,2.83-2.93.77-.78,1.11-.76,1.9.05,1.33,1.36,2.66,2.73,4.01,4.08.7.7.9.69,1.59-.02,1.37-1.4,2.73-2.81,4.11-4.19.22-.22.54-.34.95-.59,1.1,1.38,2.19,2.72,3.26,4.08.57.72,1.01,1.56,1.66,2.2.65.64.88,1.35.88,2.2,0,1.41,0,2.81,0,4.14-.68.32-.9.06-1.21-.36-1.35-1.83-2.77-3.61-4.17-5.41-.13-.17-.23-.37-.46-.74-1.44,1.42-2.74,2.64-3.98,3.92-1.89,1.92-1.88,1.94-3.78.03-1.15-1.16-2.3-2.33-3.45-3.48-.07-.07-.19-.1-.47-.23-1,.96-2.05,1.96-3.09,2.97-.58.57-1.18,1.13-1.7,1.75-.56.66-1.11.63-1.68.1-.56-.52-1.08-1.08-1.62-1.62-1-1-2-2-3.15-3.15-1.94,1.9-3.82,3.75-5.95,5.83Z"/>
    <path class="cls-1" d="m346.75,290.01c0-1.86-.04-3.44.02-5.02.02-.45.23-.98.53-1.3,1.49-1.56,3.03-3.07,4.57-4.58.18-.18.47-.25.78-.4,1.89,1.84,3.76,3.67,5.73,5.59.83-.75,1.56-1.38,2.26-2.05.94-.91,1.85-1.86,2.77-2.79.74-.75.81-.75,1.55-.04,1.56,1.51,3.1,3.04,4.71,4.62.37-.23.73-.38.99-.63,1.36-1.34,2.69-2.7,4.03-4.06.76-.78.93-.8,1.7-.05,1.28,1.26,2.56,2.52,3.83,3.8,1.02,1.02,1.13,1.04,2.21-.05,1.27-1.27,2.52-2.57,3.8-3.84.26-.25.61-.41.96-.65,1.16,1.46,2.27,2.84,3.36,4.24.56.72,1.02,1.54,1.66,2.19.68.7.84,1.48.82,2.39-.03,1.25,0,2.5,0,3.72-.6.43-.88.2-1.23-.27-1.33-1.79-2.73-3.53-4.1-5.28-.16-.21-.36-.4-.65-.71-1.86,1.84-3.67,3.63-5.59,5.53-2.22-1.55-3.81-3.74-5.9-5.54-1.89,1.86-3.78,3.72-5.75,5.66-1.92-1.88-3.69-3.62-5.59-5.48-1.89,1.87-3.73,3.69-5.73,5.67-2.01-1.95-3.9-3.78-5.92-5.74-.51.45-1.09.91-1.61,1.44-1.01,1.05-1.97,2.15-2.99,3.18-.23.23-.66.26-1.21.46Z"/>
  </g>
  <g>
    <path class="cls-2" d="m143.86,292.43c-11.19,0-21.21-6.85-24.94-17.05-.1-.27-.06-.58.11-.82.17-.24.44-.38.73-.38h48.21c.29,0,.57.14.73.38.17.24.21.55.11.82-3.73,10.2-13.76,17.05-24.95,17.05Zm-22.79-16.47c3.8,8.83,12.8,14.68,22.79,14.68s18.99-5.85,22.79-14.68h-45.58Z"/>
    <g>
      <path class="cls-2" d="m162.39,269.79c-2.2,0-3.98-1.79-3.98-3.98s1.79-3.98,3.98-3.98,3.98,1.79,3.98,3.98-1.79,3.98-3.98,3.98Zm0-6.18c-1.21,0-2.19.98-2.19,2.19s.98,2.19,2.19,2.19,2.19-.98,2.19-2.19-.98-2.19-2.19-2.19Z"/>
      <path class="cls-2" d="m143.86,269.79c-2.2,0-3.98-1.79-3.98-3.98s1.79-3.98,3.98-3.98,3.98,1.79,3.98,3.98-1.79,3.98-3.98,3.98Zm0-6.18c-1.21,0-2.19.98-2.19,2.19s.98,2.19,2.19,2.19,2.19-.98,2.19-2.19-.98-2.19-2.19-2.19Z"/>
      <path class="cls-2" d="m125.34,269.79c-2.2,0-3.98-1.79-3.98-3.98s1.79-3.98,3.98-3.98,3.98,1.79,3.98,3.98-1.79,3.98-3.98,3.98Zm0-6.18c-1.21,0-2.19.98-2.19,2.19s.98,2.19,2.19,2.19,2.19-.98,2.19-2.19-.98-2.19-2.19-2.19Z"/>
    </g>
  </g>
  <path class="cls-3" d="m357.75,353.57l-.31-.07c-.56-.13-1.16-.11-1.74.09-1.7.57-2.62,2.41-2.06,4.11.57,1.7,2.41,2.62,4.11,2.06,2.29-.76,4.58-1.15,6.88-1.45,1.21-.14,2.42-.24,3.63-.32l-1.5,21.94c0,.16-.01.34,0,.5.14,2,1.87,3.51,3.87,3.38s3.51-1.87,3.38-3.87l-1.51-22.05c.82,0,1.63,0,2.45.03l1.72.05,1.72.12c2.29.18,4.58.43,6.88.96.4.09.84.1,1.26.01,1.59-.33,2.6-1.89,2.27-3.48-.34-1.59-1.89-2.6-3.48-2.27h-.05c-2.29.49-4.58.83-6.88,1.03-1.03.1-2.05.17-3.08.23,2.83-3.29,4.46-9.07,4.46-13.64,0-7.43-4.12-13.25-9.38-13.25s-9.38,5.82-9.38,13.25c0,4.6,1.64,10.41,4.5,13.69-.29-.02-.58-.02-.88-.04-2.29-.15-4.58-.48-6.88-1.01Zm12.62-21.9c2.91,0,5.38,4.24,5.38,9.25,0,5.91-3.15,12.25-5.38,12.25s-5.38-6.34-5.38-12.25c0-5.01,2.46-9.25,5.38-9.25Z"/>
  <g>
    <path class="cls-1" d="m284.96,346.06c0-6.28-11.57-9.57-23-9.57s-23,3.29-23,9.57,10.96,11.49,23,11.49,23-5.48,23-11.49Zm-23,7.26c-11.29,0-18.77-5.17-18.77-7.26,0-1.88,7.13-5.34,18.77-5.34s18.77,3.46,18.77,5.34c0,2.09-7.48,7.26-18.77,7.26Z"/>
    <path class="cls-1" d="m245.78,376.09l1.13-14.05c.01-.18.01-.37,0-.56-.15-1.9-1.82-3.32-3.72-3.17-1.9.15-3.32,1.82-3.17,3.72l1.13,14.05"/>
    <path class="cls-1" d="m263.31,376.09l1.13-14.05c.01-.18.01-.37,0-.56-.15-1.9-1.82-3.32-3.72-3.17-1.9.15-3.32,1.82-3.17,3.72l1.13,14.05"/>
    <path class="cls-1" d="m280.84,376.09l1.13-14.05c.01-.18.01-.37,0-.56-.15-1.9-1.82-3.32-3.72-3.17-1.9.15-3.32,1.82-3.17,3.72l1.13,14.05"/>
  </g>
  <path class="cls-1" d="m16.7,350.59c-.53,1.41-.54,3.45.89,3.95,1.48-3.55,4.66-6.35,8.37-7.36.91,1.71,3.42,3.18,3.55,5.13.12,1.72-1.97,4.22-2.2,6.13-.3,2.51.38,5.21,2.19,6.97,1.59,1.54,3.82,2.19,5.98,2.61.66.13,1.32.24,1.99.33l-1.67,9.87c-2.17-.51-5.75-.98-7.77.74-.62.53-.7,1.46-.17,2.09.29.35.71.52,1.13.52.34,0,.68-.11.95-.35.66-.56,2.18-.58,3.72-.37-.07.41.03.85.32,1.19.29.35.71.52,1.13.52.34,0,.68-.11.96-.35,1.2-1.02,5.31-1,7.85-.66.39.05.8-.06,1.11-.31.31-.25.52-.61.56-1.01l1.18-11.62c5.11-.43,10.15-1.8,14.75-4.07-5.43-5.96-14.02-7.5-21.53-10.41-1.83-.71-3.77-1.65-4.59-3.44-1.18-2.56.48-5.62-.19-8.36-.54-2.19-2.71-3.85-4.96-3.81-2.25.04-4.36,1.78-4.82,3.99-3.96,1.13-7.31,4.22-8.75,8.08Zm22.08,27.87l1.65-9.79c1.12.08,2.24.11,3.36.1l-.99,9.69c-1.09-.08-2.56-.13-4.03,0Z"/>
  <path class="cls-3" d="m242.42,459.84c.52.03,1-.24,1.41-.59,1.93-1.63,3.2-4.23,4.66-6.29,1.76-2.49,3.52-4.99,5.28-7.48,1.81.63,3.75.77,5.65.53v10.44c0,.82.66,1.48,1.48,1.48h9.51c.82,0,1.48-.66,1.48-1.48s-.66-1.48-1.48-1.48h7.4c.82,0,1.48-.66,1.48-1.48s-.66-1.48-1.48-1.48h-8.03v-11.48c.39-.38.77-.78,1.14-1.18,1.96-2.17,3.63-4.65,4.55-7.43.95-2.88.78-5.77.05-8.68,2.03-1.37,3.54-3.5,4.14-5.87.05-.21.1-.43.24-.59.15-.18.37-.26.59-.33,1.31-.39,2.72-.24,4.09-.21.32,0,.69-.01.9-.26.73-.87-.89-2-1.45-2.32-1.26-.73-2.65-1.24-4.11-1.37-.42-3.09-4-5.12-7.03-4.42-3.04.7-5.25,3.58-5.79,6.65-.25,1.4-.21,2.89-.86,4.15-.91,1.77-2.9,2.65-4.7,3.51-5.46,2.61-10.72,6.72-12.34,12.55-2.08,7.5-8.45,12.68-12.52,19.31-.37.6-.75,1.34-.46,1.99.18.4.57.64.95.87,1.36.82,2.72,1.64,4.08,2.47.37.22.75.45,1.18.48Zm24.4-16.82v10.48c0,.82.66,1.48,1.48,1.48h-5.92v-9.65c.28-.1.56-.19.83-.3,1.28-.52,2.48-1.21,3.61-2.01Z"/>
  <path class="cls-1" d="m383.57,438.49c-4.3-1.65-8.88-2.34-13.37-2.36-4.49-.02-9.07.66-13.39,2.31-2.15.84-4.22,1.92-6.1,3.31-.93.71-1.82,1.46-2.64,2.32-.42.41-.8.87-1.18,1.33-.38.49-.69.92-1.07,1.58-.38.65-.25,1.5.35,2.01.67.57,1.68.5,2.25-.17l.15-.18c.05-.05.1-.12.16-.18,2.65,2.23,9.29,6.47,21.47,6.47s18.2-4.72,20.73-7.21c.34.31.71.7.92.94l.15.17c.5.57,1.35.71,2.02.31.76-.45,1-1.43.55-2.19-.39-.64-.7-1.07-1.09-1.55-.38-.46-.77-.9-1.19-1.31-.82-.84-1.71-1.59-2.65-2.29-1.88-1.37-3.94-2.46-6.09-3.3Zm-32.58,7.9c.62-.48,1.28-.93,1.96-1.34,1.67-1.02,3.49-1.79,5.36-2.42,2.11-.66,4.31-1.12,6.54-1.39-.18.61-.28,1.26-.28,1.93,0,3.44,2.52,6.23,5.64,6.23s5.64-2.79,5.64-6.23c0-.66-.09-1.3-.27-1.89,2.21.28,4.38.74,6.47,1.4,1.87.64,3.7,1.41,5.38,2.43.39.23.77.47,1.14.72-2.28,2.13-7.92,6.1-18.36,6.1s-16.78-3.61-19.22-5.53Z"/>
  <path class="cls-3" d="m25.4,435.29l-.31-.07c-.56-.13-1.16-.11-1.74.09-1.7.57-2.62,2.41-2.06,4.11.57,1.7,2.41,2.62,4.11,2.06,2.29-.76,4.58-1.15,6.88-1.45,1.21-.14,2.42-.24,3.63-.32l-1.5,21.94c0,.16-.01.34,0,.5.14,2,1.87,3.51,3.87,3.38s3.51-1.87,3.38-3.87l-1.51-22.05c.82,0,1.63,0,2.45.03l1.72.05,1.72.12c2.29.18,4.58.43,6.88.96.4.09.84.1,1.26.01,1.59-.34,2.6-1.89,2.27-3.48-.34-1.59-1.89-2.6-3.48-2.27h-.05c-2.29.49-4.58.83-6.88,1.03-1.03.1-2.05.17-3.08.23,2.83-3.29,4.46-9.07,4.46-13.64,0-7.43-4.12-13.25-9.38-13.25s-9.38,5.82-9.38,13.25c0,4.6,1.64,10.41,4.5,13.69-.29-.02-.58-.02-.88-.04-2.29-.15-4.58-.48-6.88-1.01Zm12.62-21.9c2.91,0,5.38,4.24,5.38,9.25,0,5.91-3.15,12.25-5.38,12.25s-5.38-6.34-5.38-12.25c0-5.01,2.46-9.25,5.38-9.25Z"/>
  <g>
    <path class="cls-1" d="m230.89,216.85c3.47-5.8,6.94-11.6,10.4-17.4,1.43-2.4,2.86-4.8,4.3-7.19.2-.33.2-.56,0-.9-5.24-8.57-.09-19.64,9.85-21.19,7.65-1.2,15.02,4.29,15.94,11.98.68,5.65-1.4,10.15-6,13.49-.1.07-.19.14-.35.25,1.53,2.57,3.06,5.13,4.63,7.77.15-.23.27-.41.38-.59,1.92-3.22,3.84-6.44,5.77-9.66.7-1.18,1.69-1.19,2.39-.02,4.57,7.65,9.14,15.31,13.71,22.96.28.47.45.94.15,1.46-.3.51-.78.61-1.34.61-8.84,0-17.69,0-26.53,0-.91,0-1.44-.4-1.48-1.13-.04-.75.49-1.26,1.34-1.26,3.03,0,6.07,0,9.1,0,.33,0,.66,0,1.1,0-.87-1.46-1.68-2.83-2.52-4.18-.07-.12-.34-.16-.52-.16-.96-.02-1.92,0-2.87,0-.54,0-.98-.2-1.22-.71-.35-.75.15-1.61.99-1.66.66-.04,1.32,0,2.07,0-.1-.21-.16-.37-.24-.51-3.29-5.52-6.58-11.03-9.86-16.55-.2-.34-.43-.46-.81-.44-.54.03-1.08.02-1.62,0-.78-.02-1.31-.5-1.32-1.19-.01-.7.53-1.19,1.34-1.21.19,0,.39,0,.7,0-1.22-2.05-2.39-4.01-3.65-6.13-1.14,4.8-2.23,9.44-3.36,14.18.67,0,1.29-.02,1.92,0,.31.02.65.07.91.21.5.27.65.76.52,1.29-.15.56-.54.88-1.14.89-.9.01-1.79,0-2.77,0-1.27,5.37-2.54,10.73-3.82,16.16,1.41,0,2.77,0,4.12,0,.64,0,1.28,0,1.92,0,.78.01,1.29.49,1.28,1.2,0,.7-.51,1.19-1.29,1.19-2.95,0-5.91,0-8.86,0-3.87,0-7.75-.01-11.62.01-.73,0-1.28-.19-1.63-.85,0-.24,0-.48,0-.72Zm16.37-27.43c.15-.25.27-.43.38-.62,1.79-2.99,3.57-5.99,5.36-8.98.74-1.23,1.7-1.22,2.45.02,2.65,4.43,5.29,8.87,7.94,13.3.12.2.25.4.38.6,4.32-2.46,7.06-8.91,4.19-14.8-2.89-5.92-10.14-8.28-15.89-5.16-6.07,3.29-7.61,10.49-4.8,15.64Zm29.77,6.68c-.1.13-.14.18-.17.23-1.86,3.11-3.73,6.22-5.57,9.35-.11.18-.08.54.04.73,1.81,3.07,3.65,6.13,5.46,9.2.19.32.4.41.76.41,3.61-.01,7.22,0,10.83,0,.15,0,.29-.02.51-.03-3.97-6.65-7.9-13.23-11.86-19.88Zm-25.86-8.25s-.09-.02-.14-.03c-5.59,9.37-11.18,18.74-16.8,28.16h10.3c2.22-9.4,4.43-18.76,6.65-28.12Z"/>
    <path class="cls-1" d="m259.16,205.95c-.6,0-1.2.01-1.8,0-.76-.02-1.29-.54-1.28-1.22.01-.66.54-1.16,1.26-1.17,1.2-.01,2.39-.02,3.59,0,.74.01,1.23.5,1.23,1.18,0,.69-.48,1.18-1.22,1.2-.6.02-1.2,0-1.8,0Z"/>
    <path class="cls-1" d="m259.68,217.19c0,.66-.5,1.19-1.15,1.21-.67.02-1.22-.53-1.21-1.21,0-.65.53-1.18,1.18-1.18.65,0,1.18.52,1.18,1.18Z"/>
  </g>
  <g>
    <path class="cls-3" d="m138.59,385.01c-.76-.19-1.54-.33-2.28-.58-3.87-1.31-6.57-4.86-6.83-8.92-.02-.36-.04-.73-.04-1.09,0-13.62,0-27.24,0-40.86,0-4.2,1.82-7.36,5.5-9.4,1.47-.82,3.08-1.16,4.77-1.16,4.1,0,8.19,0,12.29,0,6.06,0,10.5,4.43,10.51,10.51.01,6.92,0,13.84,0,20.76s0,13.48,0,20.22c0,4.07-1.74,7.21-5.29,9.21-1.05.59-2.3.81-3.46,1.19-.13.04-.27.08-.4.11h-14.78Zm-7.07-31c0,3.91,0,7.83,0,11.74,0,3.01-.02,6.01,0,9.02.05,4.63,3.59,8.16,8.19,8.17,4.18.02,8.35,0,12.53,0,1.25,0,2.45-.23,3.57-.81,3.11-1.6,4.64-4.19,4.64-7.68,0-13.64,0-27.28,0-40.92,0-.24,0-.48-.02-.73-.26-4.42-3.75-7.74-8.19-7.75-4.18-.01-8.35-.02-12.53.01-.76,0-1.54.11-2.27.31-3.59.99-5.92,4.13-5.92,7.98-.01,6.88,0,13.76,0,20.64Z"/>
    <path class="cls-3" d="m145.16,357.95c-1.75-.55-3.19-1.51-4.48-2.73-.14-.13-.4-.16-.61-.17-1.13-.02-2.26,0-3.39-.02-.52,0-.89-.28-1-.8-.1-.46.05-.86.47-1.09.2-.11.46-.16.69-.16,1.29-.01,2.58,0,3.87-.02.27,0,.59-.11.78-.28,1.43-1.27,2.97-2.36,4.88-2.79,1.79-.4,3.48-.09,5.09.77,1.37.74,2.51,1.75,3.53,2.91.5.57.46,1.13-.11,1.64-1.26,1.13-2.7,1.98-4.3,2.52-.37.13-.5.28-.49.67.02,1.21.01,2.42,0,3.63,0,.8-.41,1.29-1.04,1.28-.63-.01-1.02-.5-1.02-1.31,0-1.23,0-2.46,0-3.68-.46-.17-.68.02-.9.38-1.28,2.08-2.92,3.77-5.36,4.44-1.8.49-3.53.25-5.13-.71-1.99-1.2-2.2-3.9-.45-5.34,1.13-.93,2.54-.71,3.27.5.35.59.27,1.16-.2,1.5-.48.34-1.03.23-1.48-.31-.05-.06-.1-.11-.15-.17-.78.69-.76,1.54.1,2.05,1.23.74,2.56.85,3.9.37,1.55-.55,2.61-1.69,3.52-3.08Zm7.57-3.7c-2.98-3.22-6.6-3.35-9.87.09,3.01,2.68,7.03,2.27,9.87-.09Z"/>
    <path class="cls-3" d="m148.13,377.7c.57-.52,1.09-1,1.6-1.48.66-.6,1.12-.6,1.79,0,.52.47,1.04.95,1.6,1.47.55-.51,1.08-1,1.62-1.49.59-.53,1.23-.56,1.65-.08.41.46.32,1.06-.24,1.59-.72.68-1.45,1.35-2.18,2.01-.61.55-1.09.55-1.7,0-.54-.49-1.07-.98-1.65-1.51-.54.5-1.06.99-1.6,1.47-.68.61-1.12.61-1.79,0-.52-.48-1.04-.95-1.61-1.48-.53.49-1.06.99-1.59,1.47-.68.61-1.11.61-1.79,0-.51-.46-1.01-.92-1.52-1.39-.01-.01-.03-.02-.11-.06-.53.48-1.07.98-1.62,1.48-.63.56-1.08.57-1.7.01-.75-.68-1.49-1.36-2.22-2.05-.57-.53-.62-1.12-.17-1.59.42-.43,1.02-.41,1.56.07.55.5,1.1,1,1.68,1.53.58-.53,1.12-1.04,1.67-1.53.59-.53,1.05-.52,1.65.01.54.48,1.07.98,1.66,1.52.54-.49,1.06-.98,1.59-1.46.68-.62,1.11-.63,1.79-.02.52.47,1.04.95,1.61,1.48Z"/>
    <path class="cls-3" d="m148.84,347.61c-1.57.02-2.92.39-4.21,1.01-2.25,1.08-4.49,2.21-6.95,2.75-.91.2-1.87.22-2.8.18-.35-.01-.8-.35-.99-.67-.15-.25-.1-.79.08-1.03.18-.25.7-.48.97-.4.87.28,1.71.15,2.49-.15,2.21-.85,4.41-1.75,6.59-2.69,3.25-1.41,6.46-1.62,9.51.41,1.02.68,1.87,1.64,2.72,2.54.59.63.51,1.29-.02,1.69-.54.4-1.11.23-1.62-.47-1.46-1.99-3.4-3.09-5.76-3.17Z"/>
    <path class="cls-3" d="m144.95,369.51c0-.65-.01-1.29,0-1.94.02-.72.44-1.17,1.05-1.16.58.01,1,.44,1.01,1.13.02,1.31.02,2.62,0,3.93-.01.68-.43,1.12-1.02,1.12-.61,0-1.01-.44-1.04-1.16,0-.04,0-.08,0-.12,0-.61,0-1.21,0-1.82h0Z"/>
    <path class="cls-3" d="m139.79,369.52c0,.64,0,1.29,0,1.93-.01.7-.44,1.16-1.04,1.16-.58,0-.99-.44-1.01-1.11-.04-1.27-.07-2.53-.08-3.8-.01-.79.4-1.28,1.04-1.28.62,0,1,.46,1.02,1.24.01.62,0,1.25,0,1.87.03,0,.05,0,.08,0Z"/>
    <path class="cls-3" d="m154.24,369.54c0,.67.01,1.33,0,2-.02.63-.43,1.06-1,1.07-.57,0-1.03-.41-1.04-1.03-.03-1.37-.03-2.74,0-4.12.01-.63.48-1.04,1.04-1.04.57,0,.99.43,1,1.06.02.69,0,1.37,0,2.06Z"/>
    <path class="cls-3" d="m145.8,337.4c-1.02-.03-1.88-.91-1.87-1.93,0-1.04.93-1.93,1.96-1.9,1.03.03,1.88.91,1.87,1.93-.01,1.05-.92,1.92-1.96,1.89Z"/>
    <path class="cls-3" d="m141.24,341.33c-.24-.19-.64-.36-.75-.64-.12-.3-.12-.82.07-1.05.6-.75,1.29-1.44,1.98-2.11.38-.36.95-.3,1.31.06.37.37.49.87.16,1.26-.66.79-1.39,1.51-2.12,2.23-.13.13-.37.14-.67.25Z"/>
    <path class="cls-3" d="m151.43,340.36c-.2.24-.38.64-.68.75-.3.12-.82.08-1.04-.12-.72-.64-1.37-1.36-2-2.09-.33-.38-.23-.98.12-1.32.37-.36.94-.43,1.32-.07.71.68,1.37,1.41,2.03,2.15.12.14.14.37.25.69Z"/>
    <path class="cls-3" d="m141.3,329.62c.35.19.63.28.82.46.59.58,1.16,1.18,1.71,1.79.45.5.46,1.1.04,1.51-.43.43-1.06.39-1.55-.11-.58-.59-1.14-1.19-1.7-1.8-.32-.34-.42-.78-.16-1.16.19-.28.54-.46.84-.69Z"/>
    <path class="cls-3" d="m151.48,330.7c-.2.36-.31.65-.5.87-.52.59-1.07,1.15-1.62,1.71-.5.5-1.11.54-1.55.11-.41-.41-.41-1.02.04-1.51.57-.62,1.12-1.28,1.77-1.81.27-.22.8-.28,1.14-.18.28.08.46.52.71.82Z"/>
    <path class="cls-3" d="m144.97,340.55c0-.38-.03-.77,0-1.15.06-.53.47-.88.98-.89.5-.01.98.32,1.01.85.06.8.06,1.61,0,2.41-.04.55-.44.85-1,.86-.53.01-.95-.36-1-.93-.04-.38,0-.76,0-1.15,0,0,0,0,0,0Z"/>
    <path class="cls-3" d="m147,330.26c0,.36.03.73,0,1.09-.06.59-.52.98-1.05.96-.52-.02-.95-.4-.97-.97-.04-.72-.04-1.45,0-2.17.03-.61.45-.98,1.02-.97.56,0,.96.37,1.02.98.03.36,0,.72,0,1.09,0,0,0,0,0,0Z"/>
    <path class="cls-3" d="m151.17,336.44c-.36,0-.73.02-1.09,0-.62-.05-1.01-.49-.98-1.08.02-.56.41-.95,1.03-.97.68-.02,1.37-.02,2.06,0,.59.02,1.01.44,1.03.98.02.56-.41,1.02-1.01,1.07-.34.02-.69,0-1.03,0Z"/>
    <path class="cls-3" d="m140.88,334.38c.34,0,.69-.02,1.03,0,.56.04.94.44.95.98.02.54-.33,1.01-.88,1.05-.78.05-1.57.05-2.36,0-.53-.03-.91-.55-.88-1.06.03-.52.43-.93.98-.97.38-.02.77,0,1.15,0Z"/>
  </g>
  <g>
    <path class="cls-3" d="m453.6,301.01c-.76-.19-1.54-.33-2.28-.58-3.87-1.31-6.57-4.86-6.83-8.92-.02-.36-.04-.73-.04-1.09,0-13.62,0-27.24,0-40.86,0-4.2,1.82-7.36,5.5-9.4,1.47-.82,3.08-1.16,4.77-1.16,4.1,0,8.19,0,12.29,0,6.06,0,10.5,4.43,10.51,10.51.01,6.92,0,13.84,0,20.76s0,13.48,0,20.22c0,4.07-1.74,7.21-5.29,9.21-1.05.59-2.3.81-3.46,1.19-.13.04-.27.08-.4.11h-14.78Zm-7.07-31c0,3.91,0,7.83,0,11.74,0,3.01-.02,6.01,0,9.02.05,4.63,3.59,8.16,8.19,8.17,4.18.02,8.35,0,12.53,0,1.25,0,2.45-.23,3.57-.81,3.11-1.6,4.64-4.19,4.64-7.68,0-13.64,0-27.28,0-40.92,0-.24,0-.48-.02-.73-.26-4.42-3.75-7.74-8.19-7.75-4.18-.01-8.35-.02-12.53.01-.76,0-1.54.11-2.27.31-3.59.99-5.92,4.13-5.92,7.98-.01,6.88,0,13.76,0,20.64Z"/>
    <path class="cls-3" d="m460.18,273.94c-1.75-.55-3.19-1.51-4.48-2.73-.14-.13-.4-.16-.61-.17-1.13-.02-2.26,0-3.39-.02-.52,0-.89-.28-1-.8-.1-.46.05-.86.47-1.09.2-.11.46-.16.69-.16,1.29-.01,2.58,0,3.87-.02.27,0,.59-.11.78-.28,1.43-1.27,2.97-2.36,4.88-2.79,1.79-.4,3.48-.09,5.09.77,1.37.74,2.51,1.75,3.53,2.91.5.57.46,1.13-.11,1.64-1.26,1.13-2.7,1.98-4.3,2.52-.37.13-.5.28-.49.67.02,1.21.01,2.42,0,3.63,0,.8-.41,1.29-1.04,1.28-.63-.01-1.02-.5-1.02-1.31,0-1.23,0-2.46,0-3.68-.46-.17-.68.02-.9.38-1.28,2.08-2.92,3.77-5.36,4.44-1.8.49-3.53.25-5.13-.71-1.99-1.2-2.2-3.9-.45-5.34,1.13-.93,2.54-.71,3.27.5.35.59.27,1.16-.2,1.5-.48.34-1.03.23-1.48-.31-.05-.06-.1-.11-.15-.17-.78.69-.76,1.54.1,2.05,1.23.74,2.56.85,3.9.37,1.55-.55,2.61-1.69,3.52-3.08Zm7.57-3.7c-2.98-3.22-6.6-3.35-9.87.09,3.01,2.68,7.03,2.27,9.87-.09Z"/>
    <path class="cls-3" d="m463.14,293.7c.57-.52,1.09-1,1.6-1.48.66-.6,1.12-.6,1.79,0,.52.47,1.04.95,1.6,1.47.55-.51,1.08-1,1.62-1.49.59-.53,1.23-.56,1.65-.08.41.46.32,1.06-.24,1.59-.72.68-1.45,1.35-2.18,2.01-.61.55-1.09.55-1.7,0-.54-.49-1.07-.98-1.65-1.51-.54.5-1.06.99-1.6,1.47-.68.61-1.12.61-1.79,0-.52-.48-1.04-.95-1.61-1.48-.53.49-1.06.99-1.59,1.47-.68.61-1.11.61-1.79,0-.51-.46-1.01-.92-1.52-1.39-.01-.01-.03-.02-.11-.06-.53.48-1.07.98-1.62,1.48-.63.56-1.08.57-1.7.01-.75-.68-1.49-1.36-2.22-2.05-.57-.53-.62-1.12-.17-1.59.42-.43,1.02-.41,1.56.07.55.5,1.1,1,1.68,1.53.58-.53,1.12-1.04,1.67-1.53.59-.53,1.05-.52,1.65.01.54.48,1.07.98,1.66,1.52.54-.49,1.06-.98,1.59-1.46.68-.62,1.11-.63,1.79-.02.52.47,1.04.95,1.61,1.48Z"/>
    <path class="cls-3" d="m463.85,263.61c-1.57.02-2.92.39-4.21,1.01-2.25,1.08-4.49,2.21-6.95,2.75-.91.2-1.87.22-2.8.18-.35-.01-.8-.35-.99-.67-.15-.25-.1-.79.08-1.03.18-.25.7-.48.97-.4.87.28,1.71.15,2.49-.15,2.21-.85,4.41-1.75,6.59-2.69,3.25-1.41,6.46-1.62,9.51.41,1.02.68,1.87,1.64,2.72,2.54.59.63.51,1.29-.02,1.69-.54.4-1.11.23-1.62-.47-1.46-1.99-3.4-3.09-5.76-3.17Z"/>
    <path class="cls-3" d="m459.96,285.5c0-.65-.01-1.29,0-1.94.02-.72.44-1.17,1.05-1.16.58.01,1,.44,1.01,1.13.02,1.31.02,2.62,0,3.93-.01.68-.43,1.12-1.02,1.12-.61,0-1.01-.44-1.04-1.16,0-.04,0-.08,0-.12,0-.61,0-1.21,0-1.82h0Z"/>
    <path class="cls-3" d="m454.8,285.51c0,.64,0,1.29,0,1.93-.01.7-.44,1.16-1.04,1.16-.58,0-.99-.44-1.01-1.11-.04-1.27-.07-2.53-.08-3.8-.01-.79.4-1.28,1.04-1.28.62,0,1,.46,1.02,1.24.01.62,0,1.25,0,1.87.03,0,.05,0,.08,0Z"/>
    <path class="cls-3" d="m469.25,285.53c0,.67.01,1.33,0,2-.02.63-.43,1.06-1,1.07-.57,0-1.03-.41-1.04-1.03-.03-1.37-.03-2.74,0-4.12.01-.63.48-1.04,1.04-1.04.57,0,.99.43,1,1.06.02.69,0,1.37,0,2.06Z"/>
    <path class="cls-3" d="m460.81,253.4c-1.02-.03-1.88-.91-1.87-1.93,0-1.04.93-1.93,1.96-1.9,1.03.03,1.88.91,1.87,1.93-.01,1.05-.92,1.92-1.96,1.89Z"/>
    <path class="cls-3" d="m456.25,257.32c-.24-.19-.64-.36-.75-.64-.12-.3-.12-.82.07-1.05.6-.75,1.29-1.44,1.98-2.11.38-.36.95-.3,1.31.06.37.37.49.87.16,1.26-.66.79-1.39,1.51-2.12,2.23-.13.13-.37.14-.67.25Z"/>
    <path class="cls-3" d="m466.44,256.36c-.2.24-.38.64-.68.75-.3.12-.82.08-1.04-.12-.72-.64-1.37-1.36-2-2.09-.33-.38-.23-.98.12-1.32.37-.36.94-.43,1.32-.07.71.68,1.37,1.41,2.03,2.15.12.14.14.37.25.69Z"/>
    <path class="cls-3" d="m456.32,245.62c.35.19.63.28.82.46.59.58,1.16,1.18,1.71,1.79.45.5.46,1.1.04,1.51-.43.43-1.06.39-1.55-.11-.58-.59-1.14-1.19-1.7-1.8-.32-.34-.42-.78-.16-1.16.19-.28.54-.46.84-.69Z"/>
    <path class="cls-3" d="m466.49,246.69c-.2.36-.31.65-.5.87-.52.59-1.07,1.15-1.62,1.71-.5.5-1.11.54-1.55.11-.41-.41-.41-1.02.04-1.51.57-.62,1.12-1.28,1.77-1.81.27-.22.8-.28,1.14-.18.28.08.46.52.71.82Z"/>
    <path class="cls-3" d="m459.98,256.54c0-.38-.03-.77,0-1.15.06-.53.47-.88.98-.89.5-.01.98.32,1.01.85.06.8.06,1.61,0,2.41-.04.55-.44.85-1,.86-.53.01-.95-.36-1-.93-.04-.38,0-.76,0-1.15,0,0,0,0,0,0Z"/>
    <path class="cls-3" d="m462.01,246.25c0,.36.03.73,0,1.09-.06.59-.52.98-1.05.96-.52-.02-.95-.4-.97-.97-.04-.72-.04-1.45,0-2.17.03-.61.45-.98,1.02-.97.56,0,.96.37,1.02.98.03.36,0,.72,0,1.09,0,0,0,0,0,0Z"/>
    <path class="cls-3" d="m466.19,252.43c-.36,0-.73.02-1.09,0-.62-.05-1.01-.49-.98-1.08.02-.56.41-.95,1.03-.97.68-.02,1.37-.02,2.06,0,.59.02,1.01.44,1.03.98.02.56-.41,1.02-1.01,1.07-.34.02-.69,0-1.03,0Z"/>
    <path class="cls-3" d="m455.89,250.38c.34,0,.69-.02,1.03,0,.56.04.94.44.95.98.02.54-.33,1.01-.88,1.05-.78.05-1.57.05-2.36,0-.53-.03-.91-.55-.88-1.06.03-.52.43-.93.98-.97.38-.02.77,0,1.15,0Z"/>
  </g>
  <g>
    <path class="cls-1" d="m430.27,378.15c3.47-5.8,6.94-11.6,10.4-17.4,1.43-2.4,2.86-4.8,4.3-7.19.2-.33.2-.56,0-.9-5.24-8.57-.09-19.64,9.85-21.19,7.65-1.2,15.02,4.29,15.94,11.98.68,5.65-1.4,10.15-6,13.49-.1.07-.19.14-.35.25,1.53,2.57,3.06,5.13,4.63,7.77.15-.23.27-.41.38-.59,1.92-3.22,3.84-6.44,5.77-9.66.7-1.18,1.69-1.19,2.39-.02,4.57,7.65,9.14,15.31,13.71,22.96.28.47.45.94.15,1.46-.3.51-.78.61-1.34.61-8.84,0-17.69,0-26.53,0-.91,0-1.44-.4-1.48-1.13-.04-.75.49-1.26,1.34-1.26,3.03,0,6.07,0,9.1,0,.33,0,.66,0,1.1,0-.87-1.46-1.68-2.83-2.52-4.18-.07-.12-.34-.16-.52-.16-.96-.02-1.92,0-2.87,0-.54,0-.98-.2-1.22-.71-.35-.75.15-1.61.99-1.66.66-.04,1.32,0,2.07,0-.1-.21-.16-.37-.24-.51-3.29-5.52-6.58-11.03-9.86-16.55-.2-.34-.43-.46-.81-.44-.54.03-1.08.02-1.62,0-.78-.02-1.31-.5-1.32-1.19-.01-.7.53-1.19,1.34-1.21.19,0,.39,0,.7,0-1.22-2.05-2.39-4.01-3.65-6.13-1.14,4.8-2.23,9.44-3.36,14.18.67,0,1.29-.02,1.92,0,.31.02.65.07.91.21.5.27.65.76.52,1.29-.15.56-.54.88-1.14.89-.9.01-1.79,0-2.77,0-1.27,5.37-2.54,10.73-3.82,16.16,1.41,0,2.77,0,4.12,0,.64,0,1.28,0,1.92,0,.78.01,1.29.49,1.28,1.2,0,.7-.51,1.19-1.29,1.19-2.95,0-5.91,0-8.86,0-3.87,0-7.75-.01-11.62.01-.73,0-1.28-.19-1.63-.85,0-.24,0-.48,0-.72Zm16.37-27.43c.15-.25.27-.43.38-.62,1.79-2.99,3.57-5.99,5.36-8.98.74-1.23,1.7-1.22,2.45.02,2.65,4.43,5.29,8.87,7.94,13.3.12.2.25.4.38.6,4.32-2.46,7.06-8.91,4.19-14.8-2.89-5.92-10.14-8.28-15.89-5.16-6.07,3.29-7.61,10.49-4.8,15.64Zm29.77,6.68c-.1.13-.14.18-.17.23-1.86,3.11-3.73,6.22-5.57,9.35-.11.18-.08.54.04.73,1.81,3.07,3.65,6.13,5.46,9.2.19.32.4.41.76.41,3.61-.01,7.22,0,10.83,0,.15,0,.29-.02.51-.03-3.97-6.65-7.9-13.23-11.86-19.88Zm-25.86-8.25s-.09-.02-.14-.03c-5.59,9.37-11.18,18.74-16.8,28.16h10.3c2.22-9.4,4.43-18.76,6.65-28.12Z"/>
    <path class="cls-1" d="m458.54,367.25c-.6,0-1.2.01-1.8,0-.76-.02-1.29-.54-1.28-1.22.01-.66.54-1.16,1.26-1.17,1.2-.01,2.39-.02,3.59,0,.74.01,1.23.5,1.23,1.18,0,.69-.48,1.18-1.22,1.2-.6.02-1.2,0-1.8,0Z"/>
    <path class="cls-1" d="m459.06,378.49c0,.66-.5,1.19-1.15,1.21-.67.02-1.22-.53-1.21-1.21,0-.65.53-1.18,1.18-1.18.65,0,1.18.52,1.18,1.18Z"/>
  </g>
  <path class="cls-3" d="m468.02,466h1.97c1.55,0,2.81-.86,2.81-1.93v-49c0-3.86-9.98-9.07-9.98-9.07l-9.02,34.53c-.59,2.27.63,4.59,3.2,6.07l8.21,4.74v12.73c0,1.07,1.26,1.93,2.81,1.93Z"/>
</svg>